<mxfile host="app.diagrams.net" modified="2020-10-10T08:58:56.179Z" agent="5.0 (Windows NT 10.0; Win64; x64) AppleWebKit/537.36 (KHTML, like Gecko) Chrome/86.0.4240.75 Safari/537.36" etag="Os_g8v-VGlj13crZqJiV" version="13.7.9" type="github">
  <diagram id="R2lEEEUBdFMjLlhIrx00" name="Page-1">
    <mxGraphModel dx="1278" dy="548" grid="1" gridSize="10" guides="1" tooltips="1" connect="1" arrows="1" fold="1" page="1" pageScale="1" pageWidth="850" pageHeight="1100" math="0" shadow="0" extFonts="Permanent Marker^https://fonts.googleapis.com/css?family=Permanent+Marker">
      <root>
        <mxCell id="0" />
        <mxCell id="1" parent="0" />
        <mxCell id="YOg1Quj3FaW0oakPer5X-5" value="&lt;span style=&quot;font-size: 14px&quot;&gt;&lt;b&gt;Member&lt;/b&gt;&lt;/span&gt;" style="rounded=0;whiteSpace=wrap;html=1;" vertex="1" parent="1">
          <mxGeometry x="80" y="334.25" width="270" height="60" as="geometry" />
        </mxCell>
        <mxCell id="YOg1Quj3FaW0oakPer5X-7" value="" style="endArrow=none;html=1;entryX=0.651;entryY=1.005;entryDx=0;entryDy=0;entryPerimeter=0;exitX=0.25;exitY=0;exitDx=0;exitDy=0;" edge="1" parent="1" source="YOg1Quj3FaW0oakPer5X-5" target="YOg1Quj3FaW0oakPer5X-8">
          <mxGeometry width="50" height="50" relative="1" as="geometry">
            <mxPoint x="92.58000000000004" y="325.27" as="sourcePoint" />
            <mxPoint x="90" y="284.25" as="targetPoint" />
            <Array as="points" />
          </mxGeometry>
        </mxCell>
        <mxCell id="YOg1Quj3FaW0oakPer5X-8" value="&lt;b&gt;&lt;u&gt;&lt;font style=&quot;font-size: 14px&quot;&gt;Id&lt;/font&gt;&lt;/u&gt;&lt;/b&gt;" style="ellipse;whiteSpace=wrap;html=1;" vertex="1" parent="1">
          <mxGeometry x="20" y="244.25" width="58" height="40" as="geometry" />
        </mxCell>
        <mxCell id="YOg1Quj3FaW0oakPer5X-9" value="" style="endArrow=none;html=1;exitX=0.375;exitY=-0.033;exitDx=0;exitDy=0;entryX=0.5;entryY=1;entryDx=0;entryDy=0;exitPerimeter=0;" edge="1" parent="1" source="YOg1Quj3FaW0oakPer5X-5" target="YOg1Quj3FaW0oakPer5X-10">
          <mxGeometry width="50" height="50" relative="1" as="geometry">
            <mxPoint x="122.46000000000004" y="324.25" as="sourcePoint" />
            <mxPoint x="170" y="287.25" as="targetPoint" />
            <Array as="points" />
          </mxGeometry>
        </mxCell>
        <mxCell id="YOg1Quj3FaW0oakPer5X-10" value="&lt;b&gt;&lt;font style=&quot;font-size: 14px&quot;&gt;password&lt;/font&gt;&lt;/b&gt;" style="ellipse;whiteSpace=wrap;html=1;" vertex="1" parent="1">
          <mxGeometry x="90" y="242.75" width="78" height="43" as="geometry" />
        </mxCell>
        <mxCell id="YOg1Quj3FaW0oakPer5X-11" value="" style="endArrow=none;html=1;entryX=0.389;entryY=1.035;entryDx=0;entryDy=0;entryPerimeter=0;" edge="1" parent="1" source="YOg1Quj3FaW0oakPer5X-5" target="YOg1Quj3FaW0oakPer5X-12">
          <mxGeometry width="50" height="50" relative="1" as="geometry">
            <mxPoint x="169.99653061224495" y="324.25" as="sourcePoint" />
            <mxPoint x="226.67000000000002" y="284.25" as="targetPoint" />
          </mxGeometry>
        </mxCell>
        <mxCell id="YOg1Quj3FaW0oakPer5X-12" value="&lt;font style=&quot;font-size: 14px&quot;&gt;&lt;b&gt;name&lt;/b&gt;&lt;/font&gt;" style="ellipse;whiteSpace=wrap;html=1;" vertex="1" parent="1">
          <mxGeometry x="176.67000000000002" y="245.75" width="58" height="40" as="geometry" />
        </mxCell>
        <mxCell id="YOg1Quj3FaW0oakPer5X-16" value="" style="endArrow=none;html=1;exitX=0.593;exitY=0;exitDx=0;exitDy=0;entryX=0.362;entryY=0.963;entryDx=0;entryDy=0;entryPerimeter=0;exitPerimeter=0;" edge="1" parent="1" target="YOg1Quj3FaW0oakPer5X-17" source="YOg1Quj3FaW0oakPer5X-5">
          <mxGeometry width="50" height="50" relative="1" as="geometry">
            <mxPoint x="191.67000000000002" y="324.25" as="sourcePoint" />
            <mxPoint x="270" y="285.25" as="targetPoint" />
          </mxGeometry>
        </mxCell>
        <mxCell id="YOg1Quj3FaW0oakPer5X-17" value="&lt;font style=&quot;font-size: 14px&quot;&gt;&lt;b&gt;age&lt;/b&gt;&lt;/font&gt;" style="ellipse;whiteSpace=wrap;html=1;" vertex="1" parent="1">
          <mxGeometry x="246.67000000000002" y="244.25" width="58" height="40" as="geometry" />
        </mxCell>
        <mxCell id="YOg1Quj3FaW0oakPer5X-20" value="" style="endArrow=none;html=1;entryX=0.389;entryY=1.035;entryDx=0;entryDy=0;entryPerimeter=0;exitX=0.704;exitY=0;exitDx=0;exitDy=0;exitPerimeter=0;" edge="1" parent="1" target="YOg1Quj3FaW0oakPer5X-21" source="YOg1Quj3FaW0oakPer5X-5">
          <mxGeometry width="50" height="50" relative="1" as="geometry">
            <mxPoint x="320.61" y="334.25" as="sourcePoint" />
            <mxPoint x="370" y="284.25" as="targetPoint" />
          </mxGeometry>
        </mxCell>
        <mxCell id="YOg1Quj3FaW0oakPer5X-21" value="&lt;font style=&quot;font-size: 14px&quot;&gt;&lt;b&gt;phone&lt;br&gt;number&lt;br&gt;&lt;/b&gt;&lt;/font&gt;" style="ellipse;whiteSpace=wrap;html=1;" vertex="1" parent="1">
          <mxGeometry x="310" y="240" width="88" height="51.5" as="geometry" />
        </mxCell>
        <mxCell id="YOg1Quj3FaW0oakPer5X-25" value="&lt;b style=&quot;font-size: 14px&quot;&gt;Lend&lt;/b&gt;" style="rhombus;whiteSpace=wrap;html=1;" vertex="1" parent="1">
          <mxGeometry x="420" y="324.25" width="130" height="80" as="geometry" />
        </mxCell>
        <mxCell id="YOg1Quj3FaW0oakPer5X-26" value="" style="endArrow=none;html=1;entryX=0;entryY=0.5;entryDx=0;entryDy=0;exitX=1;exitY=0.5;exitDx=0;exitDy=0;fontStyle=1" edge="1" parent="1" source="YOg1Quj3FaW0oakPer5X-5" target="YOg1Quj3FaW0oakPer5X-25">
          <mxGeometry width="50" height="50" relative="1" as="geometry">
            <mxPoint x="370" y="384.25" as="sourcePoint" />
            <mxPoint x="420" y="334.25" as="targetPoint" />
          </mxGeometry>
        </mxCell>
        <mxCell id="YOg1Quj3FaW0oakPer5X-27" value="" style="endArrow=none;html=1;exitX=1;exitY=0.5;exitDx=0;exitDy=0;entryX=0;entryY=0.5;entryDx=0;entryDy=0;" edge="1" parent="1" source="YOg1Quj3FaW0oakPer5X-25" target="YOg1Quj3FaW0oakPer5X-29">
          <mxGeometry width="50" height="50" relative="1" as="geometry">
            <mxPoint x="590" y="434.25" as="sourcePoint" />
            <mxPoint x="640" y="364.25" as="targetPoint" />
          </mxGeometry>
        </mxCell>
        <mxCell id="YOg1Quj3FaW0oakPer5X-29" value="&lt;span style=&quot;font-size: 14px&quot;&gt;&lt;b&gt;Book&lt;/b&gt;&lt;/span&gt;" style="rounded=0;whiteSpace=wrap;html=1;" vertex="1" parent="1">
          <mxGeometry x="640" y="334.25" width="190" height="60" as="geometry" />
        </mxCell>
        <mxCell id="YOg1Quj3FaW0oakPer5X-31" value="" style="endArrow=none;html=1;entryX=0.651;entryY=1.005;entryDx=0;entryDy=0;entryPerimeter=0;exitX=0.309;exitY=0.003;exitDx=0;exitDy=0;exitPerimeter=0;" edge="1" parent="1" target="YOg1Quj3FaW0oakPer5X-32" source="YOg1Quj3FaW0oakPer5X-29">
          <mxGeometry width="50" height="50" relative="1" as="geometry">
            <mxPoint x="697.5" y="334.25" as="sourcePoint" />
            <mxPoint x="640" y="284.25" as="targetPoint" />
            <Array as="points" />
          </mxGeometry>
        </mxCell>
        <mxCell id="YOg1Quj3FaW0oakPer5X-32" value="&lt;b&gt;&lt;u&gt;&lt;font style=&quot;font-size: 14px&quot;&gt;bId&lt;/font&gt;&lt;/u&gt;&lt;/b&gt;" style="ellipse;whiteSpace=wrap;html=1;" vertex="1" parent="1">
          <mxGeometry x="530" y="251.5" width="60" height="40" as="geometry" />
        </mxCell>
        <mxCell id="YOg1Quj3FaW0oakPer5X-35" value="1" style="text;html=1;strokeColor=none;fillColor=none;align=center;verticalAlign=middle;whiteSpace=wrap;rounded=0;" vertex="1" parent="1">
          <mxGeometry x="354" y="334.25" width="22" height="20" as="geometry" />
        </mxCell>
        <mxCell id="YOg1Quj3FaW0oakPer5X-36" value="N" style="text;html=1;strokeColor=none;fillColor=none;align=center;verticalAlign=middle;whiteSpace=wrap;rounded=0;" vertex="1" parent="1">
          <mxGeometry x="610" y="334.25" width="22" height="20" as="geometry" />
        </mxCell>
        <mxCell id="YOg1Quj3FaW0oakPer5X-38" value="" style="endArrow=none;html=1;entryX=0;entryY=0;entryDx=0;entryDy=0;exitX=0.432;exitY=0.017;exitDx=0;exitDy=0;exitPerimeter=0;" edge="1" parent="1" target="YOg1Quj3FaW0oakPer5X-39" source="YOg1Quj3FaW0oakPer5X-29">
          <mxGeometry width="50" height="50" relative="1" as="geometry">
            <mxPoint x="803.1500000000001" y="335.45000000000005" as="sourcePoint" />
            <mxPoint x="730" y="284.25" as="targetPoint" />
            <Array as="points" />
          </mxGeometry>
        </mxCell>
        <mxCell id="YOg1Quj3FaW0oakPer5X-39" value="&lt;span style=&quot;font-size: 14px&quot;&gt;&lt;b&gt;author&lt;/b&gt;&lt;/span&gt;" style="ellipse;whiteSpace=wrap;html=1;direction=west;" vertex="1" parent="1">
          <mxGeometry x="600" y="251.5" width="60" height="40" as="geometry" />
        </mxCell>
        <mxCell id="YOg1Quj3FaW0oakPer5X-40" value="" style="endArrow=none;html=1;entryX=0.651;entryY=1.005;entryDx=0;entryDy=0;entryPerimeter=0;exitX=0.5;exitY=0;exitDx=0;exitDy=0;" edge="1" parent="1" target="YOg1Quj3FaW0oakPer5X-41" source="YOg1Quj3FaW0oakPer5X-29">
          <mxGeometry width="50" height="50" relative="1" as="geometry">
            <mxPoint x="893.1500000000001" y="329.70000000000005" as="sourcePoint" />
            <mxPoint x="820" y="278.5" as="targetPoint" />
            <Array as="points" />
          </mxGeometry>
        </mxCell>
        <mxCell id="YOg1Quj3FaW0oakPer5X-41" value="&lt;span style=&quot;font-size: 14px&quot;&gt;&lt;b&gt;bname&lt;/b&gt;&lt;/span&gt;" style="ellipse;whiteSpace=wrap;html=1;" vertex="1" parent="1">
          <mxGeometry x="670" y="251.5" width="60" height="40" as="geometry" />
        </mxCell>
        <mxCell id="YOg1Quj3FaW0oakPer5X-44" value="" style="endArrow=none;html=1;entryX=0.651;entryY=1.005;entryDx=0;entryDy=0;entryPerimeter=0;exitX=0.625;exitY=-0.01;exitDx=0;exitDy=0;exitPerimeter=0;" edge="1" parent="1" target="YOg1Quj3FaW0oakPer5X-45" source="YOg1Quj3FaW0oakPer5X-29">
          <mxGeometry width="50" height="50" relative="1" as="geometry">
            <mxPoint x="825" y="334.25" as="sourcePoint" />
            <mxPoint x="910" y="278.5" as="targetPoint" />
            <Array as="points" />
          </mxGeometry>
        </mxCell>
        <mxCell id="YOg1Quj3FaW0oakPer5X-45" value="&lt;span style=&quot;font-size: 14px&quot;&gt;&lt;b&gt;ISBN&lt;/b&gt;&lt;/span&gt;" style="ellipse;whiteSpace=wrap;html=1;" vertex="1" parent="1">
          <mxGeometry x="740" y="251.5" width="50" height="40" as="geometry" />
        </mxCell>
        <mxCell id="YOg1Quj3FaW0oakPer5X-46" value="" style="endArrow=none;html=1;entryX=0.651;entryY=1.005;entryDx=0;entryDy=0;entryPerimeter=0;exitX=0.701;exitY=0.03;exitDx=0;exitDy=0;exitPerimeter=0;" edge="1" parent="1" target="YOg1Quj3FaW0oakPer5X-47" source="YOg1Quj3FaW0oakPer5X-29">
          <mxGeometry width="50" height="50" relative="1" as="geometry">
            <mxPoint x="825" y="331.25" as="sourcePoint" />
            <mxPoint x="910" y="275.5" as="targetPoint" />
            <Array as="points" />
          </mxGeometry>
        </mxCell>
        <mxCell id="YOg1Quj3FaW0oakPer5X-47" value="&lt;span style=&quot;font-size: 14px&quot;&gt;&lt;b&gt;bname&lt;/b&gt;&lt;/span&gt;" style="ellipse;whiteSpace=wrap;html=1;" vertex="1" parent="1">
          <mxGeometry x="800" y="251.5" width="78" height="40" as="geometry" />
        </mxCell>
        <mxCell id="YOg1Quj3FaW0oakPer5X-48" value="" style="endArrow=none;html=1;entryX=0.343;entryY=0.974;entryDx=0;entryDy=0;entryPerimeter=0;exitX=0.798;exitY=0.017;exitDx=0;exitDy=0;exitPerimeter=0;" edge="1" parent="1" target="YOg1Quj3FaW0oakPer5X-49" source="YOg1Quj3FaW0oakPer5X-29">
          <mxGeometry width="50" height="50" relative="1" as="geometry">
            <mxPoint x="860" y="336.04999999999995" as="sourcePoint" />
            <mxPoint x="996.81" y="275.5" as="targetPoint" />
            <Array as="points" />
          </mxGeometry>
        </mxCell>
        <mxCell id="YOg1Quj3FaW0oakPer5X-49" value="&lt;span style=&quot;font-size: 14px&quot;&gt;&lt;b&gt;reservation&lt;br&gt;&lt;/b&gt;&lt;/span&gt;" style="ellipse;whiteSpace=wrap;html=1;" vertex="1" parent="1">
          <mxGeometry x="886.81" y="251.5" width="93.19" height="40" as="geometry" />
        </mxCell>
        <mxCell id="YOg1Quj3FaW0oakPer5X-50" value="" style="endArrow=none;html=1;exitX=0.5;exitY=0;exitDx=0;exitDy=0;entryX=0.576;entryY=1.023;entryDx=0;entryDy=0;entryPerimeter=0;" edge="1" parent="1" source="YOg1Quj3FaW0oakPer5X-25" target="YOg1Quj3FaW0oakPer5X-51">
          <mxGeometry width="50" height="50" relative="1" as="geometry">
            <mxPoint x="490" y="320" as="sourcePoint" />
            <mxPoint x="485" y="220" as="targetPoint" />
          </mxGeometry>
        </mxCell>
        <mxCell id="YOg1Quj3FaW0oakPer5X-51" value="&lt;font style=&quot;font-size: 14px&quot;&gt;&lt;b&gt;Lbook&lt;/b&gt;&lt;/font&gt;" style="rounded=0;whiteSpace=wrap;html=1;" vertex="1" parent="1">
          <mxGeometry x="420" y="150" width="110" height="60" as="geometry" />
        </mxCell>
        <mxCell id="YOg1Quj3FaW0oakPer5X-52" value="" style="endArrow=none;html=1;exitX=0.25;exitY=0;exitDx=0;exitDy=0;entryX=1;entryY=1;entryDx=0;entryDy=0;" edge="1" parent="1" source="YOg1Quj3FaW0oakPer5X-51" target="YOg1Quj3FaW0oakPer5X-54">
          <mxGeometry width="50" height="50" relative="1" as="geometry">
            <mxPoint x="459" y="140" as="sourcePoint" />
            <mxPoint x="360" y="110" as="targetPoint" />
          </mxGeometry>
        </mxCell>
        <mxCell id="YOg1Quj3FaW0oakPer5X-54" value="&lt;b&gt;Lid&lt;/b&gt;" style="ellipse;whiteSpace=wrap;html=1;" vertex="1" parent="1">
          <mxGeometry x="324" y="80" width="56" height="40" as="geometry" />
        </mxCell>
        <mxCell id="YOg1Quj3FaW0oakPer5X-55" value="" style="endArrow=none;html=1;exitX=0.418;exitY=-0.037;exitDx=0;exitDy=0;exitPerimeter=0;entryX=0.5;entryY=1;entryDx=0;entryDy=0;" edge="1" parent="1" target="YOg1Quj3FaW0oakPer5X-56" source="YOg1Quj3FaW0oakPer5X-51">
          <mxGeometry width="50" height="50" relative="1" as="geometry">
            <mxPoint x="530" y="147.77999999999997" as="sourcePoint" />
            <mxPoint x="428.75" y="110" as="targetPoint" />
          </mxGeometry>
        </mxCell>
        <mxCell id="YOg1Quj3FaW0oakPer5X-56" value="&lt;b&gt;bId&lt;/b&gt;" style="ellipse;whiteSpace=wrap;html=1;" vertex="1" parent="1">
          <mxGeometry x="398" y="80" width="52" height="40" as="geometry" />
        </mxCell>
        <mxCell id="YOg1Quj3FaW0oakPer5X-59" value="" style="endArrow=none;html=1;exitX=0.455;exitY=0;exitDx=0;exitDy=0;exitPerimeter=0;entryX=0.5;entryY=1;entryDx=0;entryDy=0;" edge="1" parent="1" target="YOg1Quj3FaW0oakPer5X-60" source="YOg1Quj3FaW0oakPer5X-51">
          <mxGeometry width="50" height="50" relative="1" as="geometry">
            <mxPoint x="475.98" y="157.77999999999997" as="sourcePoint" />
            <mxPoint x="438.75" y="120" as="targetPoint" />
          </mxGeometry>
        </mxCell>
        <mxCell id="YOg1Quj3FaW0oakPer5X-60" value="&lt;b&gt;Lend date&lt;/b&gt;" style="ellipse;whiteSpace=wrap;html=1;" vertex="1" parent="1">
          <mxGeometry x="459" y="80" width="52" height="40" as="geometry" />
        </mxCell>
        <mxCell id="YOg1Quj3FaW0oakPer5X-61" value="" style="endArrow=none;html=1;exitX=0.6;exitY=0.017;exitDx=0;exitDy=0;exitPerimeter=0;entryX=0.5;entryY=1;entryDx=0;entryDy=0;" edge="1" parent="1" target="YOg1Quj3FaW0oakPer5X-62" source="YOg1Quj3FaW0oakPer5X-51">
          <mxGeometry width="50" height="50" relative="1" as="geometry">
            <mxPoint x="590" y="147.77999999999997" as="sourcePoint" />
            <mxPoint x="552.77" y="110" as="targetPoint" />
          </mxGeometry>
        </mxCell>
        <mxCell id="YOg1Quj3FaW0oakPer5X-62" value="&lt;b&gt;Return&lt;br&gt;date&lt;/b&gt;" style="ellipse;whiteSpace=wrap;html=1;" vertex="1" parent="1">
          <mxGeometry x="522.02" y="80" width="52" height="40" as="geometry" />
        </mxCell>
        <mxCell id="YOg1Quj3FaW0oakPer5X-63" value="&lt;span style=&quot;font-size: 14px&quot;&gt;&lt;b&gt;Reservedbook&lt;/b&gt;&lt;/span&gt;" style="rounded=0;whiteSpace=wrap;html=1;" vertex="1" parent="1">
          <mxGeometry x="150.67" y="550" width="110" height="60" as="geometry" />
        </mxCell>
        <mxCell id="YOg1Quj3FaW0oakPer5X-64" value="" style="endArrow=none;html=1;exitX=0.5;exitY=0;exitDx=0;exitDy=0;entryX=0.25;entryY=1;entryDx=0;entryDy=0;" edge="1" parent="1" source="YOg1Quj3FaW0oakPer5X-65" target="YOg1Quj3FaW0oakPer5X-63">
          <mxGeometry width="50" height="50" relative="1" as="geometry">
            <mxPoint x="124" y="650" as="sourcePoint" />
            <mxPoint x="70" y="630" as="targetPoint" />
          </mxGeometry>
        </mxCell>
        <mxCell id="YOg1Quj3FaW0oakPer5X-65" value="&lt;b&gt;Lid&lt;/b&gt;" style="ellipse;whiteSpace=wrap;html=1;" vertex="1" parent="1">
          <mxGeometry x="78" y="660" width="56" height="40" as="geometry" />
        </mxCell>
        <mxCell id="YOg1Quj3FaW0oakPer5X-66" value="" style="endArrow=none;html=1;exitX=0.418;exitY=-0.037;exitDx=0;exitDy=0;exitPerimeter=0;" edge="1" parent="1" target="YOg1Quj3FaW0oakPer5X-63">
          <mxGeometry width="50" height="50" relative="1" as="geometry">
            <mxPoint x="181.98000000000005" y="670" as="sourcePoint" />
            <mxPoint x="140" y="642" as="targetPoint" />
          </mxGeometry>
        </mxCell>
        <mxCell id="YOg1Quj3FaW0oakPer5X-67" value="&lt;b&gt;bId&lt;/b&gt;" style="ellipse;whiteSpace=wrap;html=1;" vertex="1" parent="1">
          <mxGeometry x="140" y="660" width="52" height="40" as="geometry" />
        </mxCell>
        <mxCell id="YOg1Quj3FaW0oakPer5X-68" value="" style="endArrow=none;html=1;" edge="1" parent="1" source="YOg1Quj3FaW0oakPer5X-69" target="YOg1Quj3FaW0oakPer5X-63">
          <mxGeometry width="50" height="50" relative="1" as="geometry">
            <mxPoint x="217.66" y="670" as="sourcePoint" />
            <mxPoint x="267.65999999999997" y="620" as="targetPoint" />
          </mxGeometry>
        </mxCell>
        <mxCell id="YOg1Quj3FaW0oakPer5X-69" value="&lt;b&gt;bname&lt;/b&gt;" style="ellipse;whiteSpace=wrap;html=1;" vertex="1" parent="1">
          <mxGeometry x="204.67" y="660" width="52" height="40" as="geometry" />
        </mxCell>
        <mxCell id="YOg1Quj3FaW0oakPer5X-70" value="" style="endArrow=none;html=1;entryX=0.75;entryY=1;entryDx=0;entryDy=0;" edge="1" parent="1" target="YOg1Quj3FaW0oakPer5X-63">
          <mxGeometry width="50" height="50" relative="1" as="geometry">
            <mxPoint x="270" y="664" as="sourcePoint" />
            <mxPoint x="324" y="640" as="targetPoint" />
          </mxGeometry>
        </mxCell>
        <mxCell id="YOg1Quj3FaW0oakPer5X-73" value="" style="endArrow=none;html=1;entryX=0.5;entryY=1;entryDx=0;entryDy=0;exitX=0.568;exitY=-0.023;exitDx=0;exitDy=0;exitPerimeter=0;" edge="1" parent="1" source="YOg1Quj3FaW0oakPer5X-63" target="YOg1Quj3FaW0oakPer5X-5">
          <mxGeometry width="50" height="50" relative="1" as="geometry">
            <mxPoint x="184.67000000000002" y="520" as="sourcePoint" />
            <mxPoint x="234.67000000000002" y="470" as="targetPoint" />
          </mxGeometry>
        </mxCell>
        <mxCell id="YOg1Quj3FaW0oakPer5X-74" value="1" style="text;html=1;strokeColor=none;fillColor=none;align=center;verticalAlign=middle;whiteSpace=wrap;rounded=0;" vertex="1" parent="1">
          <mxGeometry x="230.66" y="404.25" width="22" height="20" as="geometry" />
        </mxCell>
        <mxCell id="YOg1Quj3FaW0oakPer5X-75" value="N" style="text;html=1;strokeColor=none;fillColor=none;align=center;verticalAlign=middle;whiteSpace=wrap;rounded=0;" vertex="1" parent="1">
          <mxGeometry x="234.67" y="520" width="22" height="20" as="geometry" />
        </mxCell>
        <mxCell id="YOg1Quj3FaW0oakPer5X-76" value="&lt;b&gt;turn&lt;/b&gt;" style="ellipse;whiteSpace=wrap;html=1;" vertex="1" parent="1">
          <mxGeometry x="260.66999999999996" y="660" width="60" height="40" as="geometry" />
        </mxCell>
      </root>
    </mxGraphModel>
  </diagram>
</mxfile>
